<?xml version="1.0" encoding="utf-8"?>
<!-- Generator: Adobe Illustrator 26.5.0, SVG Export Plug-In . SVG Version: 6.00 Build 0)  -->
<svg version="1.1" id="Layer_1" xmlns="http://www.w3.org/2000/svg" xmlns:xlink="http://www.w3.org/1999/xlink" x="0px" y="0px"
	 viewBox="0 0 131.9 136.6" style="enable-background:new 0 0 131.9 136.6;" xml:space="preserve">
<style type="text/css">
	.st0{fill:#FFB34C;}
	.st1{fill:#FFC94A;}
</style>
<g>
	<circle class="st0" cx="65" cy="71.6" r="65"/>
	<circle class="st1" cx="65" cy="71.6" r="54.2"/>
	<path class="st0" d="M84.8,48.8l4-12.2L81,34.2l-5.1,11.5l-5.3-2.1l3.8-11l-8.1-3l-4.2,10.3l-13.3-5.6l-4,7.2l9.2,4.2L41.8,81.4
		l-7.6-1.8l-5.1,7.3l14.3,4.5l-4.7,12.2l9.3,2.9l4.2-12.6l7.8,2.6l-3.5,12.9l8.3,2.3c1-4.2,2.1-8.3,3.1-12.5c10.9,6,23,1.2,26.1-6.9
		c2.3-5.9-0.2-13.7-6.4-18.8c5.2-0.9,9.7-4,10.9-8.1C100.3,59.4,95,50.6,84.8,48.8z M74.5,84c-0.5,1-1.7,4.4-5.4,5.9
		c-4.4,1.7-9.8,0.4-13.5-3.5l5-14.8c4.7-1.1,9.5,0.4,12.2,3.9C75.6,79,74.6,83.1,74.5,84z M78.8,62.7c-0.6,1.2-1.7,3-3.8,4.2
		c-3.7,2.1-8.8,1.5-13-1.5l5-14.7c5.4-1.1,10.3,1.3,12,5.1C80.2,58.8,79.2,61.8,78.8,62.7z"/>
</g>
</svg>
