<?xml version="1.0" encoding="utf-8"?>
<!-- Generator: Adobe Illustrator 26.5.0, SVG Export Plug-In . SVG Version: 6.00 Build 0)  -->
<!-- nose was #0000FF -->
<svg version="1.1" id="Layer_2_00000144311339573606756040000006851467717902982272_"
	 xmlns="http://www.w3.org/2000/svg" xmlns:xlink="http://www.w3.org/1999/xlink" x="0px" y="0px" viewBox="0 0 412.5 438.6"
	 style="enable-background:new 0 0 412.5 438.6;" xml:space="preserve">
<style type="text/css">
	.st0{fill:#FF7BAB;stroke:#000000;stroke-miterlimit:10;}
	.st1{fill:#FF7BAB;stroke:#000000;stroke-miterlimit:10;}
	.st2{fill:none;stroke:#000000;stroke-miterlimit:10;}
	.st3{stroke:#000000;stroke-miterlimit:10;}
</style>
<path class="st0" d="M272.7,331.5l3.2,13.4c0.6,2.3,1.8,4.5,3.7,6c4.5,3.8,13.7,9.9,26.1,8.2c11.7-1.6,18.8-9.1,22.4-14.3
	c1.9-2.8,2.9-6.1,2.9-9.5l-0.4-37.8"/>
<path class="st0" d="M131.8,327.1l-5.7,81.1c-0.3,3.7,0.6,7.5,2.4,10.7c3.4,6.1,10.4,15.1,22.2,18.1c13.8,3.6,29.2-2.1,38.8-14.5
	c2.4-3.1,3.9-6.9,4.6-10.7c3.9-23.4,7.8-46.2,11.7-69.8"/>
<path class="st0" d="M22.6,238.9L6.2,345c-0.4,2.5,0.3,5,1.8,7c2.7,3.4,8,8.1,17.7,12.1c11.2,4.6,24.4,2.6,34.5-5.1
	c2.8-2.1,4.8-5.2,5.6-8.7c4-17.8,7.9-35.5,11.9-53.2"/>
<path class="st0" d="M315.8,308.1C234,369.3,97.6,347.4,25.6,243.2c-12.9-18.6-21.1-39.9-23.8-62.3c-3.5-29.9-1.5-73.5,27-113.9
	c13.4-19,29.4-32.6,44.8-42.2c25.4-15.9,54.9-24,84.8-24.3c128.3-1.3,215.5,82.3,215.4,152.6"/>
<path class="st1" d="M307.1,213.8c-17.8,43-11,86.7,15.2,97.6s61.9-15.2,79.8-58.3c13.4-32.3,12.9-64.9,0.8-83.8
	c-4-6.3-9.4-11.1-15.9-13.8C360.7,144.7,325,170.8,307.1,213.8z"/>
<path class="st2" d="M403.8,171.1c-3-6-10.4-11.7-21-11c-25.9,1.8-46.9,34.4-54,49c-6.2,12.6-25.9,52.7-6,84
	c6.6,10.4,18.1,20.1,23,19"/>
<path class="st2" d="M153.9,73.1c-8.5,12.7-4,30.1-2.2,37c5.8,22.2,21.8,34.4,27,38c5.2-11.1,14.2-27.3,29-44
	c17.8-20,29.5-24.2,28-31C232.5,58.6,171.5,46.8,153.9,73.1z"/>
<path class="st2" d="M199.4,57.6c-6,1-10.4,3.1-13.6,5.5c-18.1,13.1-20.2,46.9-7,85"/>
<path class="st3" d="M378,230.9c1.2-1.1,6.9-7.2,6.8-14.8c-0.1-5.4-3.1-9.3-7.8-11.9c-0.1-0.1-0.2-0.2-0.1-0.3l2-12.5
	c0-0.2-0.1-0.3-0.3-0.3H374c-0.1,0-0.3,0.1-0.3,0.2l-1.9,12.5c0,0.1-0.1,0.2-0.3,0.2h-3.4c-0.2,0-0.3-0.2-0.3-0.3l2.2-12.3
	c0-0.2-0.1-0.3-0.3-0.3H365c-0.1,0-0.3,0.1-0.3,0.2l-1.9,12.5c0,0.1-0.1,0.2-0.3,0.2H353c-0.1,0-0.3,0.1-0.3,0.3l-0.9,9.4
	c0,0.2,0.1,0.3,0.3,0.3h4.3c0.2,0,0.3,0.2,0.3,0.3l-7.9,44.4c0,0.1-0.1,0.2-0.3,0.2H344c-0.1,0-0.2,0.1-0.3,0.2l-1.9,8.4
	c0,0.2,0.1,0.4,0.3,0.4l8.2-0.9c0.2,0,0.3,0.1,0.3,0.3l-1.9,12.2c0,0.2,0.1,0.4,0.3,0.3l4.4-0.9c0.1,0,0.2-0.1,0.2-0.2l1.9-12.6
	c0-0.1,0.1-0.2,0.2-0.2l2.6-0.4c0.2,0,0.4,0.1,0.3,0.3l-2,11.6c0,0.2,0.1,0.4,0.3,0.3l4.4-0.9c0.1,0,0.2-0.1,0.2-0.2l1.9-12.6
	c0-0.1,0.1-0.2,0.2-0.2c9.9-1.8,17.4-9.1,18.8-18c1.4-8.5-3.5-13.3-4.8-14.8C377.9,231.2,377.9,231,378,230.9L378,230.9z
	 M368.4,254.1c-4.4,3.1-9.2,2.3-10,2.2l2.2-18.6c0.5-0.1,6.3-0.8,10,3.3c0,0,0,0.1,0.1,0.1c2.9,3.1,2.6,8-0.2,11.2
	C369.9,252.8,369.2,253.5,368.4,254.1L368.4,254.1z M370.8,228.1c-3.9,2.9-8.2,2.1-9,2l2-17c0.5-0.1,5.6-0.8,9,3c0,0,0,0,0.1,0.1
	c2.5,2.8,2.4,7.1,0,10C372.3,226.8,371.6,227.5,370.8,228.1L370.8,228.1z"/>
<path class="st3" d="M148.8,1.1c7.8,0.8,15.7,1.9,25,4c9.4,2.1,17.8,4.7,25.2,7.3c1.2,0.4,2.5,0.5,3.8,0.3c2.2-0.4,4.3-0.9,6.5-1.3
	c0.4-0.1,0.5-0.7,0.1-0.9c-6.6-2.3-13.7-4.5-21.5-6.5c-5.2-1.3-10.2-2.4-15-3.3"/>
<path class="st0" d="M312.8,49.1c11.4-20.2,30.7-31.1,43.7-28.5c2,0.4,3.3,1.7,3.4,2c1.2,7.6,1.9,17.3,0.9,28.6
	c-1.4,15.9-5.8,28.7-9.6,37.3c-6.1-8.3-14.2-17.7-24.4-27.3c-11.8-11-22.3-19.1-32-25c4.3-2.8,47.2-31,62-18c1,0.9,2.7,2.9,3.1,4.4"
	/>
</svg>
