<?xml version="1.0" encoding="utf-8"?>
<!-- Generator: Adobe Illustrator 26.5.0, SVG Export Plug-In . SVG Version: 6.00 Build 0)  -->
<svg version="1.1" id="Layer_1" xmlns="http://www.w3.org/2000/svg" xmlns:xlink="http://www.w3.org/1999/xlink" x="0px" y="0px"
	 viewBox="0 0 131.9 178.6" style="enable-background:new 0 0 131.9 178.6;" xml:space="preserve">
<style type="text/css">
	.st0{fill:#4A4445;stroke:#000000;stroke-width:1;stroke-miterlimit:10;}
	.st1{fill:#FFB34C;}
	.st2{fill:#FFC94A;}
</style>
<path class="st0" d="M34.3,67.8V14.2C36.7,11.9,48.2,1.2,65.2,1C83,0.8,93.2,12,95.4,14.1C95.4,35.4,96,49.7,96,71H83.2l-0.6-48.3
	c-1.1-1.1-7.8-7.2-18-6.7c-8.7,0.5-14.3,5.6-15.6,7c0,16,0.1,32,0.2,48H34.3L34.3,67.8L34.3,67.8z"/>
<g>
	<circle class="st1" cx="65" cy="113.6" r="65"/>
	<circle class="st2" cx="65" cy="113.6" r="54.2"/>
	<path class="st1" d="M84.8,90.8l4-12.2L81,76.2l-5.1,11.5l-5.3-2.1l3.8-11l-8.1-3l-4.2,10.3l-13.3-5.6l-4,7.2l9.2,4.2l-12.2,35.7
		l-7.6-1.8l-5.1,7.3l14.3,4.5l-4.7,12.2l9.3,2.9l4.2-12.6l7.8,2.6l-3.5,12.9l8.3,2.3c1-4.2,2.1-8.3,3.1-12.5c10.9,6,23,1.2,26.1-6.9
		c2.3-5.9-0.2-13.7-6.4-18.8c5.2-0.9,9.7-4,10.9-8.1C100.3,101.4,95,92.6,84.8,90.8z M74.5,126c-0.5,1-1.7,4.4-5.4,5.9
		c-4.4,1.7-9.8,0.4-13.5-3.5l5-14.8c4.7-1.1,9.5,0.4,12.2,3.9C75.6,121,74.6,125.1,74.5,126z M78.8,104.7c-0.6,1.2-1.7,3-3.8,4.2
		c-3.7,2.1-8.8,1.5-13-1.5l5-14.7c5.4-1.1,10.3,1.3,12,5.1C80.2,100.8,79.2,103.8,78.8,104.7z"/>
</g>
</svg>
