<?xml version="1.0" encoding="utf-8"?>
<!-- Generator: Adobe Illustrator 26.5.0, SVG Export Plug-In . SVG Version: 6.00 Build 0)  -->
<svg version="1.1" id="Layer_1" xmlns="http://www.w3.org/2000/svg" xmlns:xlink="http://www.w3.org/1999/xlink" x="0px" y="0px"
	 viewBox="0 0 133.3 133" style="enable-background:new 0 0 133.3 133;" xml:space="preserve">
<style type="text/css">
	.st0{fill:#FFB34C;}
	.st1{fill:#FFC94A;}
</style>
<circle class="st0" cx="66.6" cy="66.2" r="65"/>
<circle class="st1" cx="66.6" cy="66.2" r="54.2"/>
<path class="st0" d="M86.4,43.4l4-12.2l-7.8-2.4l-5.1,11.5l-5.3-2.1l3.8-11l-8.1-3l-4.2,10.3l-13.3-5.6l-4,7.2l9.2,4.2L43.4,76
	l-7.6-1.8l-5.1,7.3L45,86l-4.7,12.2l9.3,2.9l4.2-12.6l7.8,2.6L58.1,104l8.3,2.3c1-4.2,2.1-8.3,3.1-12.5c10.9,6,23,1.2,26.1-6.9
	c2.3-5.9-0.2-13.7-6.4-18.8c5.2-0.9,9.7-4,10.9-8.1C101.9,54,96.6,45.2,86.4,43.4z M76.1,78.6c-0.5,1-1.7,4.4-5.4,5.9
	c-4.4,1.7-9.8,0.4-13.5-3.5l5-14.8c4.7-1.1,9.5,0.4,12.2,3.9C77.2,73.6,76.2,77.7,76.1,78.6z M80.4,57.3c-0.6,1.2-1.7,3-3.8,4.2
	c-3.7,2.1-8.8,1.5-13-1.5l5-14.7c5.4-1.1,10.3,1.3,12,5.1C81.8,53.4,80.8,56.4,80.4,57.3z"/>
</svg>
