<?xml version="1.0" encoding="UTF-8"?>
<svg id="Layer_2" data-name="Layer 2" xmlns="http://www.w3.org/2000/svg" viewBox="0 0 412.51 438.63">
  <path d="M272.74,331.48l3.25,13.38c.57,2.34,1.84,4.45,3.66,6.01,4.45,3.81,13.71,9.9,26.12,8.2,11.67-1.6,18.81-9.1,22.44-14.27,1.94-2.77,2.93-6.08,2.93-9.46l-.37-37.77" fill="#ff7bab" stroke="#000" stroke-miterlimit="10"/>
  <path d="M131.77,327.07l-5.66,81.13c-.26,3.73,.57,7.46,2.41,10.72,3.45,6.09,10.36,15.06,22.25,18.15,13.83,3.59,29.21-2.14,38.78-14.49,2.41-3.11,3.91-6.85,4.56-10.73,3.9-23.44,7.76-46.24,11.66-69.78" fill="#ff7bab" stroke="#000" stroke-miterlimit="10"/>
  <path d="M22.65,238.85L6.24,344.97c-.38,2.48,.27,5.01,1.83,6.98,2.69,3.39,8.01,8.15,17.7,12.12,11.21,4.59,24.35,2.56,34.51-5.06,2.84-2.13,4.78-5.24,5.56-8.7,4.01-17.77,7.89-35.46,11.92-53.24" fill="#ff7bab" stroke="#000" stroke-miterlimit="10"/>
  <path d="M315.77,308.07c-81.74,61.26-218.12,39.34-290.21-64.83-12.85-18.57-21.14-39.89-23.77-62.32C-1.71,151.07,.26,107.45,28.77,67.07c13.42-19.02,29.39-32.57,44.75-42.22C98.9,8.91,128.4,.81,158.37,.51c128.31-1.27,215.54,82.31,215.4,152.56" fill="#ff7bab" stroke="#000" stroke-miterlimit="10"/>
  <path d="M307.14,213.8c-17.84,43.04-11.05,86.74,15.17,97.6s61.92-15.22,79.76-58.26c13.38-32.28,12.9-64.93,.77-83.82-4.04-6.3-9.38-11.06-15.94-13.78-26.21-10.86-61.92,15.22-79.76,58.26Z" fill="blue" stroke="#000" stroke-miterlimit="10"/>
  <path d="M403.77,171.07c-3-6-10.44-11.74-21-11-25.94,1.81-46.85,34.35-54,49-6.17,12.64-25.87,52.69-6,84,6.63,10.44,18.08,20.09,23,19" fill="none" stroke="#000" stroke-miterlimit="10"/>
  <path d="M153.95,73.07c-8.52,12.74-3.98,30.14-2.19,37,5.78,22.15,21.8,34.36,27,38,5.23-11.06,14.18-27.34,29-44,17.78-20,29.5-24.25,28-31-3.23-14.49-64.23-26.29-81.81,0Z" fill="none" stroke="#000" stroke-miterlimit="10"/>
  <path d="M199.42,57.61c-6.02,1-10.41,3.13-13.65,5.46-18.15,13.06-20.19,46.94-7,85" fill="none" stroke="#000" stroke-miterlimit="10"/>
  <path d="M377.97,230.89c1.21-1.12,6.94-7.22,6.79-14.82-.1-5.37-3.1-9.32-7.82-11.91-.1-.06-.16-.17-.14-.29l1.99-12.47c.03-.17-.11-.33-.28-.33h-4.5c-.14,0-.26,.1-.28,.24l-1.93,12.52c-.02,.14-.14,.24-.28,.24h-3.41c-.18,0-.31-.16-.28-.34l2.21-12.33c.03-.17-.1-.34-.28-.34h-4.75c-.14,0-.26,.1-.28,.24l-1.93,12.52c-.02,.14-.14,.24-.28,.24h-9.5c-.15,0-.27,.11-.28,.26l-.94,9.43c-.02,.17,.11,.31,.28,.31h4.34c.18,0,.31,.16,.28,.34l-7.9,44.43c-.02,.14-.14,.24-.28,.24h-4.53c-.13,0-.25,.09-.28,.22l-1.86,8.39c-.04,.19,.12,.37,.31,.35l8.23-.91c.19-.02,.34,.14,.31,.33l-1.88,12.23c-.03,.2,.14,.36,.34,.32l4.4-.88c.12-.02,.21-.12,.23-.24l1.94-12.59c.02-.12,.12-.22,.24-.24l2.57-.36c.19-.03,.35,.14,.32,.33l-2.03,11.65c-.03,.2,.14,.37,.34,.33l4.4-.88c.12-.02,.21-.12,.23-.24l1.94-12.61c.02-.12,.11-.21,.23-.23,9.88-1.84,17.39-9.14,18.8-17.96,1.36-8.51-3.48-13.31-4.81-14.78-.1-.12-.1-.29,.02-.39Zm-9.59,23.22c-4.39,3.14-9.21,2.35-10.05,2.19l2.23-18.64c.52-.08,6.27-.82,10.05,3.29,.02,.02,.04,.05,.06,.07,2.85,3.15,2.63,7.96-.17,11.16-.58,.67-1.29,1.33-2.13,1.93Zm2.38-26.05c-3.93,2.87-8.25,2.14-9,2l2-17c.47-.07,5.61-.75,9,3,.02,.02,.04,.04,.06,.06,2.5,2.82,2.39,7.09,0,10.01-.55,.67-1.23,1.33-2.05,1.93Z" stroke="#000" stroke-miterlimit="10"/>
  <path d="M148.77,1.07c7.76,.82,15.68,1.88,25,4,9.35,2.13,17.77,4.69,25.17,7.34,1.2,.43,2.5,.53,3.75,.28,2.16-.43,4.33-.87,6.49-1.3,.45-.09,.5-.71,.07-.86-6.57-2.31-13.73-4.51-21.47-6.46-5.2-1.31-10.21-2.38-15-3.27" stroke="#000" stroke-miterlimit="10"/>
  <path d="M312.77,49.07c11.4-20.22,27.02-32.55,40-30,2.02,.4,7.02,3.16,7.07,3.44,1.17,7.59,1.92,17.34,.93,28.56-1.41,15.94-5.79,28.71-9.61,37.28-6.15-8.28-14.16-17.73-24.39-27.28-11.78-11-22.26-19.08-32-25,4.26-2.84,47.23-31.03,62-18,1.04,.92,2.23,2.56,3,4" fill="#ff7bab" stroke="#000" stroke-miterlimit="10"/>
</svg>