<?xml version="1.0" encoding="utf-8"?>
<!-- Generator: Adobe Illustrator 26.5.0, SVG Export Plug-In . SVG Version: 6.00 Build 0)  -->
<svg version="1.1" id="Layer_1" xmlns="http://www.w3.org/2000/svg" xmlns:xlink="http://www.w3.org/1999/xlink" x="0px" y="0px"
	 viewBox="0 0 111.6 97.5" style="enable-background:new 0 0 111.6 97.5;" xml:space="preserve">
<style type="text/css">
	.st0{fill:#231F20;stroke:#010101;stroke-miterlimit:10;}
</style>
<path class="st0" d="M81.3,1C65.2,1,52.1,14.1,52.1,30.2s13.1,29.2,29.2,29.2s29.2-13.1,29.2-29.2S97.5,1,81.3,1z M81.3,47.8
	c-9.7,0-17.6-7.9-17.6-17.6s7.9-17.6,17.6-17.6s17.6,7.9,17.6,17.6S91.1,47.8,81.3,47.8z"/>
<path class="st0" d="M55.7,42.9L1.1,80.4c0.3,1.9-0.5,6.9,1.5,9.7c2,2.8,5.2,2.6,5.4,2.6l4.8-3.5l4.4,5.9c1,1.4,3,1.7,4.5,0.7
	l0.6-0.5c1.4-1,1.7-2.9,0.7-4.2L18.4,85l7.3-5.2l5.1,6.5c0.9,1.1,2.5,1.4,3.7,0.5l1.4-1c1.5-1.1,1.9-3.2,0.8-4.8l-4.6-6.5
	c10.4-7.4,20.9-14.7,31.3-22.1"/>
</svg>
