<?xml version="1.0" encoding="UTF-8"?>
<svg id="Layer_1" data-name="Layer 1" xmlns="http://www.w3.org/2000/svg" viewBox="0 0 111.56 97.53">
  <path d="M81.33,1c-16.14,0-29.23,13.08-29.23,29.23s13.08,29.23,29.23,29.23,29.23-13.08,29.23-29.23S97.48,1,81.33,1Zm0,46.83c-9.72,0-17.61-7.88-17.61-17.61s7.88-17.61,17.61-17.61,17.61,7.88,17.61,17.61-7.88,17.61-17.61,17.61Z" fill="#231f20" stroke="#010101" stroke-miterlimit="10" stroke-width="1"/>
  <path d="M55.69,42.89L1.09,80.38c.32,1.9-.48,6.95,1.47,9.74,1.95,2.77,5.25,2.63,5.44,2.62l4.76-3.46,4.41,5.94c1.05,1.42,3.05,1.73,4.48,.7l.64-.46c1.37-.98,1.68-2.89,.68-4.25l-4.58-6.25,7.33-5.19,5.14,6.51c.9,1.14,2.54,1.38,3.72,.53l1.4-.99c1.54-1.09,1.9-3.22,.81-4.76l-4.59-6.48c10.42-7.37,20.85-14.73,31.27-22.1" fill="#231f20" stroke="#010101" stroke-miterlimit="10" stroke-width="1"/>
</svg>