<?xml version="1.0" encoding="UTF-8"?>
<svg id="Layer_1" data-name="Layer 1" xmlns="http://www.w3.org/2000/svg" viewBox="0 0 686.17 567.07">
  <g>
    <polygon points="239.05 128.9 245.35 295.4 286.05 280.9 277.05 112.9 239.05 128.9" fill="#231f20" stroke="#231f20" stroke-miterlimit="10"/>
    <polygon points="286.05 110.9 288.05 152.9 313.05 143.9 321.05 270.9 351.05 258.9 344.05 130.4 368.05 120.9 368.05 77.4 286.05 110.9" fill="#231f20" stroke="#231f20" stroke-miterlimit="10"/>
    <path d="M403.41,212.21c3.76,3.18,18.57,15.7,40.13,15.89,27.6,.25,45.3-19.9,47.62-22.63,17.22-20.25,19.45-50.68,5.94-77.42-23.8,3.84-47.6,7.67-71.4,11.51l4.71,26.02,37.85-3.46c2.52,10.37-1.14,20.98-9.26,26.93-8.81,6.47-19.05,4.62-20.76,4.29-4.46-1.59-10.64-4.44-16.67-9.63-12.28-10.57-15.84-23.88-16.94-29.12-.44-1.93-8.54-39.47,12.46-54.45,2.45-1.74,5.62-3.42,9.72-4.54,3.08-.54,9.85-1.29,17.15,1.8,13.51,5.72,17.02,19.56,17.43,21.28,10.58-1.67,21.16-3.34,31.74-5.01,.04-7.64-1.11-22.27-11.27-34.36-19.2-22.84-59.45-23.44-81.78-9.26-40.87,25.95-34.96,109.79,3.31,142.15Z" fill="#231f20" stroke="#231f20" stroke-miterlimit="10"/>
    <polygon points="473.05 43.9 524.05 113.9 524.05 204.4 552.05 192.9 552.05 109.4 591.05 .9 546.05 19.9 536.05 78.9 518.05 28.9 473.05 43.9" fill="#231f20" stroke="#231f20" stroke-miterlimit="10"/>
    <path d="M236.55,227.4c-10.05-29.59-47.87-50.35-87-40,33.08-13.85,52.24-48.99,46-84-.13-.74-.28-1.48-.43-2.22-8.68-41.5-51.08-66.73-92.07-55.89C68.89,54.33,34.72,63.37,.55,72.4l9,73,33-10,23,157-32.5,9,8.5,59,39-13,94.5-30.5c45-15,73.22-55.01,61.5-89.5Zm-131.5-63.5l-6-45c1.24-.73,11.41-6.55,23-2,.1,.04,.2,.08,.29,.12,12.4,5.04,17.3,19.77,11.18,31.68-.9,1.75-2.04,3.5-3.47,5.21-9.51,11.25-23.71,10.12-25,10Zm58.83,90.13c-1.59,3.02-3.8,6.08-6.83,8.87-13.06,12-29.96,8.34-31.41,8l-5.68-42.8c8.94-8.53,21.5-11.36,32.08-7.2,.38,.15,.75,.31,1.12,.47,12.39,5.54,17.06,20.66,10.72,32.66Z" fill="#231f20" stroke="#231f20" stroke-miterlimit="10"/>
  </g>
  <g>
    <path d="M253.53,430.47c25.99-10.88,41.04-38.49,36.14-66-.12-.7-.26-1.4-.41-2.1-7.51-35.25-44.3-55.86-78.75-45.27-24.67,7.59-49.52,16.52-74.05,23l7.07,57.36,25.93-7.86,18.07,123.36-25.54,7.07,6.68,46.36,30.64-10.21,73.86-24.36c35.88-10.93,57.92-42.83,48.71-69.93-7.9-23.25-37.61-39.56-68.36-31.43Zm-34.27-15.14l-5.09-38.14c1.05-.62,9.67-5.55,19.49-1.7,.08,.03,.17,.07,.25,.1,10.51,4.27,14.66,16.76,9.48,26.85-.76,1.48-1.73,2.97-2.94,4.41-8.06,9.53-20.1,8.58-21.19,8.48Zm47.65,69.42c-1.41,2.67-3.37,5.39-6.06,7.86-11.58,10.65-26.57,7.4-27.85,7.09l-5.03-37.95c7.93-7.57,19.06-10.08,28.45-6.39,.34,.13,.67,.27,.99,.42,10.99,4.91,15.13,18.32,9.5,28.97Z" fill="#231f20" stroke="#231f20" stroke-miterlimit="10"/>
    <path d="M322.05,322.9l13,188,32-11-6-51,24-7,23,46,34-12-84-165-36,12Zm37,105l-5-48,22,43-17,5Z" fill="#231f20" stroke="#231f20" stroke-miterlimit="10"/>
    <polygon points="466.05 276.9 481.05 353.61 444.05 283.9 399.05 298.9 449.05 473.9 478.05 463.9 459.05 374.9 501.05 455.9 536.05 443.9 502.05 264.9 466.05 276.9" fill="#231f20" stroke="#231f20" stroke-miterlimit="10"/>
    <polygon points="685.05 393.9 584.05 322.9 632.31 218.4 572.05 239.9 565.64 289.4 558.53 244.4 526.05 255.9 546.98 440.69 593.05 426.5 579.87 349.8 627.05 411.9 685.05 393.9" fill="#231f20" stroke="#231f20" stroke-miterlimit="10"/>
  </g>
</svg>