<?xml version="1.0" encoding="utf-8"?>
<!-- Generator: Adobe Illustrator 26.5.0, SVG Export Plug-In . SVG Version: 6.00 Build 0)  -->
<svg version="1.1" id="Layer_1" xmlns="http://www.w3.org/2000/svg" xmlns:xlink="http://www.w3.org/1999/xlink" x="0px" y="0px"
	 viewBox="0 0 710.8 584.8" style="enable-background:new 0 0 710.8 584.8;" xml:space="preserve">
<style type="text/css">
	.st0{fill:#231F20;stroke:#231F20;stroke-miterlimit:10;}
	.st1{fill:#231F20;}
	.st2{fill:#4B5563;}
</style>
<polygon class="st0" points="246.8,123.8 254.9,298.1 295.6,285.1 286.3,111.1 "/>
<polygon class="st0" points="295.3,108.2 297.6,157.6 322.6,148.6 330.5,273.8 360.6,263.9 353.6,135.1 377.6,125.6 377.6,81.3 "/>
<polygon class="st0" points="482.6,48.6 533.6,118.6 533.6,209.1 561.6,199.4 561.6,114.1 600,11 555.6,24.6 545.6,83.6 527.6,33.6 
	"/>
<path class="st0" d="M266.1,442.6c26-10.9,41-38.5,36.1-66c-0.1-0.7-0.3-1.4-0.4-2.1c-7.5-35.2-44.3-55.9-78.8-45.3
	c-24.7,7.6-49.5,16.5-74.1,23l7.1,57.4l25.9-7.9l18.2,123.4l-25.5,7l6.7,46.4l30.6-10.2l73.9-24.4c35.9-10.9,57.9-42.8,48.7-69.9
	C326.6,450.7,296.9,434.4,266.1,442.6L266.1,442.6z M231.9,427.4l-5.1-38.1c1.1-0.6,9.7-5.5,19.5-1.7c0.1,0,0.2,0.1,0.2,0.1
	c10.5,4.3,14.7,16.8,9.5,26.9c-0.8,1.5-1.7,3-2.9,4.4C245,428.5,232.9,427.5,231.9,427.4L231.9,427.4z M279.5,496.9
	c-1.4,2.7-3.4,5.4-6.1,7.9c-11.6,10.6-26.6,7.4-27.9,7.1l-5-38c7.9-7.6,19.1-10.1,28.5-6.4c0.3,0.1,0.7,0.3,1,0.4
	C281,472.8,285.1,486.2,279.5,496.9L279.5,496.9z"/>
<path class="st0" d="M331.6,327.6l12.9,186.8l32.1-9.8l-6-51l24-7l22.3,44.5l34.6-10.8l-83.8-164.7L331.6,327.6z M368.6,432.6l-5-48
	l22,43L368.6,432.6z"/>
<polygon class="st0" points="485.5,278 504.8,388.3 461.1,286.1 421.5,298.7 455.4,478.7 487.6,468.6 468.6,379.6 513.5,460.2 
	546.8,449.4 523.5,265.7 "/>
<polygon class="st0" points="697,401 593.6,327.6 642.5,227.1 581.8,246.9 575.2,294.1 568.5,251.2 535.7,261.7 556.7,446.1 
	602.7,431.6 589.5,354.5 638.7,420.1 "/>
<path class="st0" d="M476.4,162.1l-27,10.2l0.6-20.1l51.4-16.6c1.6,11.9,2.3,28.4-4.1,48.7c-3.1,9.9-7.7,23.8-20.6,36.6
	c-2.5,2.4-4.9,4.5-7.3,6.2c-8.4,6.3-19,9.2-29.4,7.5c-2.9-0.5-6-1.4-9-2.7c-9.1-4-14.3-10.7-18.2-15.9c-6.2-8.1-9.1-16.1-11.2-21.7
	c-1.8-5.3-2.9-9.6-4-13.9l-0.1-0.3c-3.5-14.4-4.5-29.4-2.8-44.2c1.1-9.2,2.9-16.8,4.6-22.5c4.6-15.4,9.6-32.3,25.5-44
	c2.2-1.6,4.6-3,6.7-4.2c10.9-5.7,23.9-6.3,34.8-0.8c0.5,0.2,0.9,0.4,1.4,0.7c7.6,4.2,11.7,9.6,15.8,15.3c4.2,5.7,10.4,16,13.8,30.8
	c0.6,3,1.3,6,1.9,8.9l-23.6,6.9c-0.1-2.3-1.3-13.9-11.3-21.8c-1.8-1.4-3.6-2.6-5.4-3.4c-5.6-2.7-12.3-2.6-17.8,0.4c0,0,0,0-0.1,0
	c-22,12.2-19,49.6-18.8,52.4c0.7,9.2,3.1,16.3,5,20.8c3.3,7.9,6.3,15.1,13.6,18.6c0.3,0.1,0.6,0.3,0.9,0.4
	c5.8,2.5,12.6,1.5,17.6-2.3c3.3-2.5,7.1-6,10.2-10.9C474.7,173.2,476,165.9,476.4,162.1z"/>
<path class="st1" d="M246.2,232.1c-10.1-29.6-47.9-50.4-87-40c33.1-13.9,52.2-49,46-84c-0.1-0.7-0.3-1.5-0.4-2.2
	c-8.1-38.7-45.5-63.2-83.8-57.6l-3.9-18.8l-21.5,4.8l3.9,19.2c-3.8,1-7.5,2-11.3,3l-3.9-19.2l-21.7,5.8l3.8,19.2
	c-18.7,5-37.4,9.9-56.2,14.9l9,73l33-10l23,157l-32.5,9l8.5,59l39-13l23.8-7.7l3,12.7l21.1-6.3l-3.1-13.2l11.2-3.6l3.1,13.5
	l21.5-6.4l-3.2-14.1l17-5.5C229.7,306.6,257.9,266.6,246.2,232.1z M131.7,121.6c0.1,0,0.2,0.1,0.3,0.1c12.4,5,17.3,19.8,11.2,31.7
	c-0.9,1.8-2,3.5-3.5,5.2c-9.6,11.3-23.8,10.1-25,10l-6-45C109.9,122.9,120.1,117,131.7,121.6z M173.5,258.7c-1.6,3-3.8,6.1-6.8,8.9
	c-13.1,12-30,8.3-31.4,8l-5.7-42.8c8.9-8.5,21.5-11.4,32.1-7.2c0.4,0.1,0.8,0.3,1.1,0.5C175.2,231.6,179.8,246.7,173.5,258.7z"/>
<g>
	<g>
		<path class="st2" d="M411.6,522.3c-0.2-0.8,0.1-1.5,0.8-1.8c0.7-0.2,1.5,0.2,1.7,0.9c0.2,0.8-0.1,1.5-0.8,1.7
			S411.9,523.1,411.6,522.3z"/>
		<path class="st2" d="M416.4,520.8c-0.2-0.8,0.1-1.5,0.8-1.8c0.7-0.2,1.5,0.2,1.7,0.9c0.2,0.8-0.1,1.5-0.8,1.7
			C417.3,522,416.6,521.6,416.4,520.8z"/>
		<path class="st2" d="M421.1,519.3c-0.2-0.8,0.1-1.5,0.8-1.8c0.7-0.2,1.5,0.2,1.7,0.9c0.2,0.8-0.1,1.5-0.8,1.7
			C422,520.5,421.3,520.1,421.1,519.3z"/>
		<path class="st2" d="M425.7,508.5l-3.2,1l-0.5-1.7l8.5-2.7l0.5,1.7l-3.2,1l3.1,9.5l-2,0.6L425.7,508.5z"/>
		<path class="st2" d="M431.8,503.7l2-0.6l1,3.1l0.4,1.7c0.5-0.9,1.1-1.8,2.3-2.1c1.8-0.6,3,0.4,3.7,2.5l1.7,5.3l-2,0.6l-1.6-5
			c-0.4-1.4-1-1.8-1.9-1.5c-0.7,0.2-1.1,0.8-1.6,1.7l1.9,5.9l-2,0.6L431.8,503.7z"/>
		<path class="st2" d="M443.3,508.8c-0.9-2.7,0.5-5,2.5-5.7c2.3-0.7,4,0.5,4.8,2.9c0.1,0.4,0.2,0.8,0.2,1l-5.3,1.7
			c0.6,1.4,1.9,2,3.2,1.5c0.7-0.2,1.3-0.7,1.8-1.2l1.1,1c-0.6,0.8-1.5,1.5-2.6,1.8C446.6,512.6,444.2,511.5,443.3,508.8z
			 M448.7,506.1c-0.4-1.3-1.2-1.9-2.4-1.5c-1,0.3-1.6,1.3-1.3,2.7L448.7,506.1z"/>
		<path class="st2" d="M454.6,500.5l1.6-0.5l0.4,0.8l0.1,0c0.5-0.8,1.3-1.6,2.2-1.9c2.1-0.7,3.9,0.6,4.7,3.2
			c0.9,2.9-0.3,5.1-2.1,5.7c-0.7,0.2-1.6,0.1-2.5-0.2l0.5,1.4l0.9,2.7l-2,0.6L454.6,500.5z M461.6,502.7c-0.5-1.7-1.4-2.5-2.7-2.1
			c-0.6,0.2-1.1,0.7-1.5,1.5l1.3,3.9c0.8,0.3,1.4,0.3,1.9,0.2C461.7,505.9,462.2,504.7,461.6,502.7z"/>
		<path class="st2" d="M463.2,494.8c-0.2-0.7,0.2-1.3,0.9-1.5s1.4,0.1,1.6,0.7c0.2,0.7-0.2,1.3-0.9,1.5S463.5,495.5,463.2,494.8z
			 M464.3,497.4l2-0.6l2.7,8.4l-2,0.6L464.3,497.4z"/>
		<path class="st2" d="M471.4,506c-0.2-0.7,0-1.5,0.6-2.2l0-0.1c-0.5-0.1-1-0.5-1.2-1.2c-0.2-0.7,0-1.4,0.4-1.9l0-0.1
			c-0.7-0.2-1.5-0.9-1.8-1.9c-0.6-1.9,0.6-3.5,2.4-4.1c0.5-0.1,0.9-0.2,1.3-0.2l3-1l0.5,1.5l-1.5,0.5c0.4,0.2,0.7,0.7,0.9,1.3
			c0.6,1.9-0.5,3.3-2.3,3.9c-0.4,0.1-0.8,0.2-1.2,0.1c-0.2,0.3-0.3,0.6-0.2,0.9c0.2,0.5,0.6,0.7,1.6,0.3l1.5-0.5
			c2-0.6,3.3-0.4,3.8,1.1c0.5,1.7-0.8,3.5-3.5,4.4C473.6,507.8,471.9,507.5,471.4,506z M474.2,497.3c-0.3-1.1-1.2-1.5-2-1.2
			c-0.8,0.3-1.3,1.1-0.9,2.1c0.3,1.1,1.2,1.5,2,1.2C474.1,499.2,474.5,498.4,474.2,497.3z M477.4,503.6c-0.2-0.7-0.8-0.7-1.8-0.4
			l-1.2,0.4c-0.5,0.1-0.8,0.2-1.2,0.2c-0.3,0.5-0.4,0.9-0.3,1.3c0.2,0.8,1.2,0.9,2.5,0.5C476.9,505.3,477.6,504.4,477.4,503.6z"/>
		<path class="st2" d="M480.3,503.2c-0.2-0.7,0-1.5,0.6-2.2l0-0.1c-0.5-0.1-1-0.5-1.2-1.2c-0.2-0.7,0-1.4,0.4-1.9l0-0.1
			c-0.7-0.2-1.5-0.9-1.8-1.9c-0.6-1.9,0.6-3.5,2.4-4.1c0.5-0.2,0.9-0.2,1.3-0.2l3-1l0.5,1.5l-1.5,0.5c0.4,0.2,0.7,0.7,0.9,1.3
			c0.6,1.9-0.5,3.3-2.3,3.9c-0.4,0.1-0.8,0.2-1.2,0.1c-0.2,0.3-0.3,0.6-0.2,0.9c0.2,0.5,0.6,0.7,1.6,0.3l1.5-0.5
			c2-0.6,3.3-0.4,3.8,1.1c0.5,1.7-0.8,3.5-3.5,4.4C482.5,504.9,480.8,504.7,480.3,503.2z M483.1,494.4c-0.3-1.1-1.2-1.5-2-1.2
			c-0.8,0.3-1.3,1.1-0.9,2.1c0.3,1.1,1.2,1.5,2,1.2C483,496.3,483.4,495.5,483.1,494.4z M486.3,500.8c-0.2-0.7-0.8-0.7-1.8-0.4
			l-1.2,0.4c-0.5,0.1-0.8,0.2-1.2,0.2c-0.3,0.5-0.4,0.9-0.3,1.3c0.2,0.8,1.2,0.9,2.5,0.5C485.8,502.4,486.5,501.5,486.3,500.8z"/>
		<path class="st2" d="M489.8,502.1l-0.1-1.6c0.2,0,0.4,0,0.6-0.1c0.9-0.3,1.2-1.1,1.2-2l0-0.6l-6-7.3l2-0.6l2.8,3.7
			c0.5,0.7,1,1.4,1.5,2.1l0.1,0c0-0.8-0.1-1.7-0.1-2.6l-0.1-4.5l1.9-0.6l-0.2,9.8c-0.1,2.1-0.6,3.6-2.4,4.2
			C490.5,502,490.2,502.1,489.8,502.1z"/>
		<path class="st2" d="M502.7,493.3L502.7,493.3l0.1,1l-1.6,0.5l-3.9-12.1l2-0.6l1,3.1l0.4,1.4c0.5-0.8,1.2-1.6,2.1-1.8
			c2.1-0.7,3.9,0.6,4.7,3.2c0.9,2.9-0.3,5.1-2.1,5.7C504.6,493.9,503.7,493.8,502.7,493.3z M505.5,488.6c-0.5-1.7-1.4-2.5-2.7-2.1
			c-0.6,0.2-1.1,0.7-1.5,1.5l1.3,3.9c0.8,0.3,1.4,0.3,1.9,0.2C505.6,491.8,506.1,490.5,505.5,488.6z"/>
		<path class="st2" d="M509.7,489.6c-0.6-1.8,0.6-3.2,4-4.7c-0.3-0.9-0.9-1.5-2.1-1.2c-0.8,0.3-1.5,0.9-2.1,1.6l-1.2-1.1
			c0.7-0.9,1.8-1.8,3.1-2.2c2.1-0.7,3.6,0.3,4.3,2.6l1.6,5l-1.6,0.5l-0.5-0.9l-0.1,0c-0.5,0.9-1.3,1.7-2.2,2
			C511.5,491.7,510.2,491,509.7,489.6z M514.6,488l-0.6-1.9c-2.2,1-2.8,1.9-2.5,2.7c0.2,0.7,0.9,0.9,1.6,0.7
			C513.8,489.2,514.2,488.7,514.6,488z"/>
		<path class="st2" d="M517,480.4l1.6-0.5l0.5,1.1l0.1,0c0.5-1,1.2-1.9,2.3-2.2c1.8-0.6,3,0.4,3.7,2.5l1.7,5.3l-2,0.6l-1.6-5
			c-0.4-1.4-1-1.8-1.9-1.5c-0.7,0.2-1.1,0.8-1.6,1.7l1.9,5.9l-2,0.6L517,480.4z"/>
		<path class="st2" d="M525.4,473.6l1.9-0.6l2.4,7.6l0.1,0l1.9-4.9l2.2-0.7l-1.8,4.4l4.8,4l-2.1,0.7l-3.3-3l-0.8,1.9l0.7,2.1
			l-1.9,0.6L525.4,473.6z"/>
		<path class="st2" d="M543.2,480.3L543.2,480.3l0.1,1l-1.6,0.5l-3.9-12.1l2-0.6l1,3.1l0.4,1.4c0.5-0.8,1.2-1.6,2.1-1.8
			c2.1-0.7,3.9,0.6,4.7,3.2c0.9,2.9-0.3,5.1-2.1,5.7C545.1,480.9,544.1,480.8,543.2,480.3z M545.9,475.6c-0.5-1.7-1.4-2.5-2.7-2.1
			c-0.6,0.2-1.1,0.7-1.5,1.5l1.3,3.9c0.8,0.3,1.4,0.3,1.9,0.2C546,478.8,546.6,477.5,545.9,475.6z"/>
		<path class="st2" d="M550.2,475.6l-1.7-5.3l2-0.6l1.6,5c0.4,1.4,1,1.8,1.9,1.5c0.7-0.2,1.1-0.7,1.5-1.8l-1.9-5.8l2-0.6l2.7,8.4
			l-1.6,0.5l-0.5-1.2l-0.1,0c-0.5,1.1-1.1,1.9-2.2,2.3C552.1,478.6,550.9,477.7,550.2,475.6z"/>
		<path class="st2" d="M557.1,464.7c-0.2-0.7,0.2-1.3,0.9-1.5c0.7-0.2,1.4,0.1,1.6,0.7c0.2,0.7-0.2,1.3-0.9,1.5
			S557.3,465.3,557.1,464.7z M558.2,467.2l2-0.6l2.7,8.4l-2,0.6L558.2,467.2z"/>
		<path class="st2" d="M564.7,472l-3.2-9.9l2-0.6l3.2,10c0.2,0.5,0.4,0.6,0.6,0.5c0.1,0,0.2-0.1,0.3-0.1l0.7,1.4
			c-0.2,0.2-0.5,0.4-1,0.5C565.9,474.2,565.1,473.5,564.7,472z"/>
		<path class="st2" d="M569.4,469.7l-1.3-4l-1.2,0.4l-0.5-1.5l1.3-0.5l-0.5-2.4l1.6-0.5l0.7,2.3l2.1-0.7l0.5,1.6l-2.1,0.7l1.3,4
			c0.3,1,0.9,1.4,1.7,1.1c0.3-0.1,0.6-0.3,0.8-0.5l0.8,1.3c-0.4,0.3-0.9,0.6-1.6,0.9C571.1,472.5,570,471.5,569.4,469.7z"/>
		<path class="st2" d="M576.1,461.5l1.2-0.5l3.5-1.1l0.5,1.6l-4.8,1.5L576.1,461.5z M577,460.2c-0.6-1.7-0.2-3.3,1.8-3.9
			c0.6-0.2,1.2-0.2,1.6-0.2l0.1,1.6c-0.3,0-0.7,0-1,0.1c-0.7,0.2-0.9,0.8-0.6,1.8l3,9.3l-2,0.6L577,460.2z"/>
		<path class="st2" d="M583.1,463.8c-0.9-2.8,0.5-5,2.6-5.7c2.1-0.7,4.5,0.3,5.4,3.1c0.9,2.8-0.5,5-2.6,5.7S584,466.6,583.1,463.8z
			 M589.1,461.9c-0.5-1.7-1.6-2.6-2.9-2.2c-1.2,0.4-1.6,1.8-1.1,3.4s1.6,2.6,2.9,2.2C589.3,464.9,589.7,463.6,589.1,461.9z"/>
		<path class="st2" d="M591.7,456.4l1.6-0.5l0.6,1.5l0.1,0c0.2-1.3,0.9-2.2,1.8-2.5c0.4-0.1,0.7-0.2,1-0.1l0.2,1.8
			c-0.3,0-0.6,0-0.9,0.1c-0.7,0.2-1.3,0.9-1.4,2.4l1.7,5.1l-2,0.6L591.7,456.4z"/>
		<path class="st2" d="M603.6,458.7l-1.3-4l-1.2,0.4l-0.5-1.5l1.3-0.5l-0.5-2.4l1.6-0.5l0.7,2.3l2.1-0.7l0.5,1.6l-2.1,0.7l1.3,4
			c0.3,1,0.9,1.4,1.7,1.1c0.3-0.1,0.6-0.3,0.8-0.5l0.8,1.3c-0.4,0.3-0.9,0.6-1.6,0.9C605.3,461.5,604.2,460.5,603.6,458.7z"/>
		<path class="st2" d="M606.6,447.5l2-0.6l1,3.1l0.4,1.7c0.5-0.9,1.1-1.8,2.3-2.1c1.8-0.6,3,0.4,3.7,2.5l1.7,5.3l-2,0.6l-1.6-5
			c-0.4-1.4-1-1.8-1.9-1.5c-0.7,0.2-1.1,0.8-1.6,1.7l1.9,5.9l-2,0.6L606.6,447.5z"/>
		<path class="st2" d="M618.1,452.6c-0.9-2.7,0.5-5,2.5-5.7c2.3-0.7,4,0.5,4.8,2.9c0.1,0.4,0.2,0.8,0.2,1l-5.3,1.7
			c0.6,1.4,1.9,2,3.2,1.5c0.7-0.2,1.3-0.7,1.8-1.2l1.1,1c-0.6,0.8-1.5,1.5-2.6,1.8C621.3,456.4,619,455.3,618.1,452.6z M623.5,449.9
			c-0.4-1.3-1.2-1.9-2.4-1.5c-1,0.3-1.6,1.3-1.3,2.7L623.5,449.9z"/>
		<path class="st2" d="M630.3,448.6c-0.9-2.7,0.3-5,2.1-5.6c1-0.3,1.7-0.1,2.5,0.2l-0.5-1.3l-1-3.1l2-0.6l3.9,12.1l-1.6,0.5
			l-0.4-0.9l-0.1,0c-0.4,0.8-1.1,1.6-2,1.9C633,452.6,631.2,451.4,630.3,448.6z M636.5,448.6l-1.3-3.9c-0.7-0.3-1.4-0.3-1.9-0.1
			c-1.1,0.3-1.6,1.6-1.1,3.4c0.6,1.8,1.6,2.6,2.8,2.2C635.7,449.9,636.2,449.5,636.5,448.6z"/>
		<path class="st2" d="M638,438.6c-0.2-0.7,0.2-1.3,0.9-1.5c0.7-0.2,1.4,0.1,1.6,0.7c0.2,0.7-0.2,1.3-0.9,1.5S638.2,439.3,638,438.6
			z M639.1,441.2l2-0.6l2.7,8.4l-2,0.6L639.1,441.2z"/>
		<path class="st2" d="M646.2,449.8c-0.2-0.7,0-1.5,0.6-2.2l0-0.1c-0.5-0.1-1-0.5-1.2-1.2c-0.2-0.7,0.1-1.4,0.4-1.9l0-0.1
			c-0.7-0.2-1.5-0.9-1.8-1.9c-0.6-1.9,0.6-3.5,2.4-4.1c0.5-0.2,0.9-0.2,1.3-0.2l3-1l0.5,1.5l-1.5,0.5c0.4,0.2,0.7,0.7,0.9,1.3
			c0.6,1.9-0.5,3.3-2.3,3.9c-0.4,0.1-0.8,0.2-1.2,0.1c-0.2,0.3-0.3,0.6-0.2,0.9c0.2,0.5,0.6,0.7,1.6,0.3l1.5-0.5
			c2-0.6,3.3-0.4,3.7,1.1c0.5,1.7-0.8,3.5-3.5,4.4C648.4,451.6,646.7,451.3,646.2,449.8z M649,441.1c-0.3-1.1-1.2-1.5-2-1.2
			c-0.8,0.3-1.3,1.1-0.9,2.1c0.3,1.1,1.2,1.5,2,1.2C648.9,443,649.3,442.2,649,441.1z M652.1,447.4c-0.2-0.7-0.8-0.7-1.8-0.4
			l-1.2,0.4c-0.5,0.1-0.8,0.2-1.2,0.2c-0.3,0.5-0.4,0.9-0.3,1.3c0.2,0.8,1.2,0.9,2.5,0.5C651.7,449.1,652.4,448.2,652.1,447.4z"/>
		<path class="st2" d="M651.4,434.3c-0.2-0.7,0.2-1.3,0.9-1.5c0.7-0.2,1.4,0.1,1.6,0.7c0.2,0.7-0.2,1.3-0.9,1.5
			S651.6,435,651.4,434.3z M652.5,436.8l2-0.6l2.7,8.4l-2,0.6L652.5,436.8z"/>
		<path class="st2" d="M659.1,440.9l-1.3-4l-1.2,0.4l-0.5-1.5l1.3-0.5l-0.5-2.4l1.6-0.5l0.7,2.3l2.1-0.7l0.5,1.6l-2.1,0.7l1.3,4
			c0.3,1,0.9,1.4,1.7,1.1c0.3-0.1,0.6-0.3,0.8-0.5l0.8,1.3c-0.4,0.3-0.9,0.6-1.6,0.9C660.8,443.7,659.6,442.7,659.1,440.9z"/>
		<path class="st2" d="M664.7,439.7c-0.6-1.8,0.6-3.2,3.9-4.7c-0.3-0.9-0.9-1.5-2.1-1.2c-0.8,0.3-1.5,0.9-2.1,1.6l-1.2-1.1
			c0.7-0.9,1.8-1.8,3.1-2.2c2.1-0.7,3.6,0.3,4.3,2.6l1.6,5l-1.6,0.5l-0.5-0.9l-0.1,0c-0.5,0.9-1.3,1.7-2.2,2
			C666.5,441.9,665.2,441.2,664.7,439.7z M669.6,438.1l-0.6-1.9c-2.2,1-2.8,1.9-2.5,2.7c0.2,0.7,0.9,0.9,1.6,0.7
			C668.8,439.4,669.2,438.9,669.6,438.1z"/>
		<path class="st2" d="M674,436.8l-3.2-9.9l2-0.6l3.2,10c0.2,0.5,0.4,0.6,0.6,0.5c0.1,0,0.2-0.1,0.3-0.1l0.7,1.4
			c-0.2,0.2-0.5,0.4-1,0.5C675.3,439,674.5,438.3,674,436.8z"/>
		<path class="st2" d="M681.6,434.3c-0.6-1.8,0.6-3.2,3.9-4.7c-0.3-0.9-0.9-1.5-2.1-1.2c-0.8,0.3-1.5,0.9-2.1,1.6l-1.2-1.1
			c0.7-0.9,1.8-1.8,3.1-2.2c2.1-0.7,3.6,0.3,4.3,2.6l1.6,5l-1.6,0.5l-0.5-0.9l-0.1,0c-0.5,0.9-1.3,1.7-2.2,2
			C683.4,436.4,682.1,435.7,681.6,434.3z M686.6,432.7l-0.6-1.9c-2.2,1-2.8,1.9-2.5,2.7c0.2,0.7,0.9,0.9,1.6,0.7
			C685.7,434,686.1,433.5,686.6,432.7z"/>
		<path class="st2" d="M691.5,435.3c-0.2-0.7,0-1.5,0.6-2.2l0-0.1c-0.5-0.1-1-0.5-1.2-1.2c-0.2-0.7,0.1-1.4,0.4-1.9l0-0.1
			c-0.7-0.2-1.5-0.9-1.8-1.9c-0.6-1.9,0.6-3.5,2.4-4.1c0.5-0.1,0.9-0.2,1.3-0.2l3-1l0.5,1.5l-1.5,0.5c0.4,0.2,0.7,0.7,0.9,1.3
			c0.6,1.9-0.5,3.3-2.3,3.9c-0.4,0.1-0.8,0.2-1.2,0.1c-0.2,0.3-0.3,0.6-0.2,0.9c0.2,0.5,0.6,0.7,1.6,0.3l1.5-0.5
			c2-0.6,3.3-0.4,3.8,1.1c0.5,1.7-0.8,3.5-3.5,4.4C693.7,437,692,436.7,691.5,435.3z M694.3,426.5c-0.3-1.1-1.2-1.5-2-1.2
			c-0.8,0.3-1.3,1.1-0.9,2.1c0.3,1.1,1.2,1.5,2,1.2C694.2,428.4,694.7,427.6,694.3,426.5z M697.5,432.9c-0.2-0.7-0.8-0.7-1.8-0.4
			l-1.2,0.4c-0.5,0.1-0.8,0.2-1.2,0.2c-0.3,0.5-0.4,0.9-0.3,1.3c0.2,0.8,1.2,0.9,2.5,0.5C697,434.5,697.7,433.6,697.5,432.9z"/>
		<path class="st2" d="M698.6,426.7c-0.9-2.7,0.5-5,2.5-5.7c2.3-0.7,4,0.5,4.8,2.9c0.1,0.4,0.2,0.8,0.2,1l-5.3,1.7
			c0.6,1.4,1.9,2,3.2,1.5c0.7-0.2,1.3-0.7,1.8-1.2l1.1,1c-0.6,0.8-1.5,1.5-2.6,1.8C701.9,430.5,699.5,429.4,698.6,426.7z M704,424
			c-0.4-1.3-1.2-1.9-2.4-1.5c-1,0.3-1.6,1.3-1.3,2.7L704,424z"/>
	</g>
</g>
</svg>
