<?xml version="1.0" encoding="utf-8"?>
<!-- Generator: Adobe Illustrator 26.5.0, SVG Export Plug-In . SVG Version: 6.00 Build 0)  -->
<svg version="1.1" id="Layer_1" xmlns="http://www.w3.org/2000/svg" xmlns:xlink="http://www.w3.org/1999/xlink" x="0px" y="0px"
	 viewBox="0 0 686.2 579.2" style="enable-background:new 0 0 686.2 579.2;" xml:space="preserve">
<style type="text/css">
	.st0{fill:#231F20;stroke:#231F20;stroke-miterlimit:10;}
	.st1{fill:#231F20;}
</style>
<polygon class="st0" points="239.1,128.9 245.4,295.4 286,280.9 277,112.9 "/>
<polygon class="st0" points="286,110.9 288,152.9 313,143.9 321,270.9 351,258.9 344,130.4 368,120.9 368,77.4 "/>
<polygon class="st0" points="473,43.9 524,113.9 524,204.4 552,192.9 552,109.4 591,0.9 546,19.9 536,78.9 518,28.9 "/>
<path class="st0" d="M256.5,437.9c26-10.9,41-38.5,36.1-66c-0.1-0.7-0.3-1.4-0.4-2.1c-7.5-35.2-44.3-55.9-78.8-45.3
	c-24.7,7.6-49.5,16.5-74.1,23l7.1,57.4l25.9-7.9l18.2,123.4l-25.5,7l6.7,46.4l30.6-10.2l73.9-24.4c35.9-10.9,57.9-42.8,48.7-69.9
	C317,446,287.3,429.7,256.5,437.9L256.5,437.9z M222.3,422.7l-5.1-38.1c1.1-0.6,9.7-5.5,19.5-1.7c0.1,0,0.2,0.1,0.2,0.1
	c10.5,4.3,14.7,16.8,9.5,26.9c-0.8,1.5-1.7,3-2.9,4.4C235.4,423.8,223.3,422.8,222.3,422.7L222.3,422.7z M269.9,492.2
	c-1.4,2.7-3.4,5.4-6.1,7.9c-11.6,10.6-26.6,7.4-27.9,7.1l-5-38c7.9-7.6,19.1-10.1,28.5-6.4c0.3,0.1,0.7,0.3,1,0.4
	C271.4,468.1,275.5,481.5,269.9,492.2L269.9,492.2z"/>
<path class="st0" d="M322,322.9l13,188l32-11l-6-51l24-7l23,46l34-12l-84-165L322,322.9z M359,427.9l-5-48l22,43L359,427.9z"/>
<polygon class="st0" points="466,276.9 481,353.6 444,283.9 399,298.9 449,473.9 478,463.9 459,374.9 501,455.9 536,443.9 
	502,264.9 "/>
<polygon class="st0" points="685,393.9 584,322.9 632.3,218.4 572,239.9 565.6,289.4 558.5,244.4 526,255.9 547,440.7 593,426.5 
	579.9,349.8 627,411.9 "/>
<path class="st0" d="M467.2,159.5l-26.7,11.2v-20.4l50.6-20.1c2,12,3.4,30.4-2.4,51.2c-2.8,10.1-7,24.4-19.5,37.7
	c-2.4,2.5-4.8,4.7-7.1,6.5c-8.2,6.6-18.7,9.9-29.2,8.5c-2.9-0.4-6-1.2-9.1-2.5c-9.2-3.8-14.6-10.4-18.7-15.6
	c-6.4-8-9.6-16.1-11.8-21.7c-2-5.3-3.2-9.6-4.4-14l-0.1-0.3c-3.9-14.5-5.4-29.7-4.1-44.7c0.8-9.4,2.4-17.1,3.9-23
	c4.1-15.8,8.6-33.1,24.2-45.4c2.2-1.7,4.5-3.2,6.6-4.5c10.7-6.1,23.7-7.1,34.8-1.9c0.5,0.2,0.9,0.4,1.4,0.7c7.7,4,12,9.4,16.2,15
	c4.4,5.7,10.9,15.9,14.7,30.8c0.7,3,1.5,6,2.2,9l-23.4,7.7c-0.2-2.3-1.7-14.1-11.9-21.8c-1.8-1.4-3.7-2.5-5.5-3.3
	c-5.7-2.6-12.4-2.3-17.8,0.9c0,0,0,0-0.1,0c-21.6,13-17.5,50.9-17.2,53.7c1,9.3,3.6,16.4,5.6,20.9c3.5,7.9,6.7,15.1,14.2,18.5
	c0.3,0.1,0.6,0.3,0.9,0.4c5.9,2.4,12.6,1.1,17.5-2.9c3.2-2.6,6.9-6.3,9.9-11.4C465.8,170.8,466.9,163.4,467.2,159.5z"/>
<path class="st1" d="M236.6,227.4c-10.1-29.6-47.9-50.4-87-40c33.1-13.9,52.2-49,46-84c-0.1-0.7-0.3-1.5-0.4-2.2
	c-8.1-38.7-45.5-63.2-83.8-57.6l-3.9-18.8L86,29.6l3.9,19.2c-3.8,1-7.5,2-11.3,3l-3.9-19.2L53,38.4l3.8,19.2
	c-18.7,5-37.4,9.9-56.2,14.9l9,73l33-10l23,157l-32.5,9l8.5,59l39-13l23.8-7.7l3,12.7l21.1-6.3l-3.1-13.2l11.2-3.6l3.1,13.5
	l21.5-6.4l-3.2-14.1l17-5.5C220.1,301.9,248.3,261.9,236.6,227.4z M122.1,116.9c0.1,0,0.2,0.1,0.3,0.1c12.4,5,17.3,19.8,11.2,31.7
	c-0.9,1.8-2,3.5-3.5,5.2c-9.6,11.3-23.8,10.1-25,10l-6-45C100.3,118.2,110.5,112.3,122.1,116.9z M163.9,254c-1.6,3-3.8,6.1-6.8,8.9
	c-13.1,12-30,8.3-31.4,8l-5.7-42.8c8.9-8.5,21.5-11.4,32.1-7.2c0.4,0.1,0.8,0.3,1.1,0.5C165.6,226.9,170.2,242,163.9,254z"/>
</svg>
