<?xml version="1.0" encoding="UTF-8"?>
<svg id="Layer_2" data-name="Layer 2" xmlns="http://www.w3.org/2000/svg" viewBox="0 0 454 428.94">
  <path d="M227,91.54c6.02,1.14,14.28,2.88,24,5.46,9.22,2.45,16.09,4.69,17,5,22.5,7.55,38.87,50.96,67.77,97.46,18.73,30.14,30.61,42.08,35.23,46.54,15.95,15.41,31.85,25.2,43.08,31.15l-91.11,103.8c-20.24-32.1-35.52-55.49-40.42-63.15-4.68-7.32-11.32-13.16-19.17-16.89-10.9-5.17-23.42-12.23-36.37-21.91-10.04-7.5-25.13-17.68-40-39-2.95,.55-10.5,1.55-19-2-7.77-3.24-12.2-8.56-14-11L227,92" fill="#f7941d" stroke="#231f20" stroke-miterlimit="10" stroke-width="2"/>
  <path d="M87,12L14.64,53.09c-7.09,4.11-8.72,13.66-3.38,19.88L142.53,226.77c2.61,3.06,6.99,3.9,10.55,2.02l7.44-3.93" fill="#6d6e71" stroke="#231f20" stroke-miterlimit="10" stroke-width="2"/>
  <path d="M214,193l-33.91,20.19-19.57,11.65c-5,2.98-11.42,1.93-15.21-2.49L17.04,73.06c-6.28-7.31-4.45-18.52,3.84-23.45L87,12c8.44-5.02,21.51,.64,28,8l45,50c8.03,8.7,80.78,88.55,61,117-1.58,2.27-3.83,4.33-7,6" fill="#00aeef" stroke="#231f20" stroke-miterlimit="10" stroke-width="2"/>
  <path d="M187,240c6.92-1.66,11.47-7.8,11-14-.36-4.71-3.59-8.95-8.24-11l-9.67-1.81" fill="none" stroke="#231f20" stroke-miterlimit="10" stroke-width="2"/>
  <path d="M180.09,240c-4.47-2.52-6.89-7.37-6.09-12,.91-5.23,5.51-7.72,6.09-8.02,2.67-1.03,7.49-2.39,12.91-.98,1.03,.27,1.98,.61,2.83,.98" fill="none" stroke="#231f20" stroke-miterlimit="10" stroke-width="2"/>
  <path d="M274,131c-30.61-18.72-41.95-31.2-47-39-1.15-1.78-3.18-5.16-7-9-7.83-7.88-15.97-5.69-23.02-10.72-.71-.51-.04-.08-4.98-5.28-12.41-13.05-14.29-13.86-16-14-5.3-.43-10.57,5.47-13,10-7.86,14.65,1.53,38.03,17,50,2.52,1.95,1.97,1.1,6,4,8.01,5.77,20.63,14.87,27,31,1.39,3.52,3.6,9.24,4,17,.51,9.79-2.28,14.62-3,21-.83,7.39,.98,18.1,13,32.35" fill="#f7941d" stroke="#231f20" stroke-miterlimit="10" stroke-width="2"/>
  <path d="M176,53c-3.35,.59-6.07,2.91-7,6-1.07,3.54,.7,6.52,1,7,4.67,5.33,9.33,10.67,14,16,3.96,1.76,8.43,.9,11-2,2.76-3.11,2.08-7.17,1.98-7.72" fill="none" stroke="#231f20" stroke-miterlimit="10" stroke-width="2"/>
  <polygon points="109 91 110.91 120.98 120.6 111.85 138 136 129.88 95.39 119.44 104.17 109 91" fill="#fbb040"/>
  <circle cx="61.5" cy="42.5" r="4.5" fill="#231f20" stroke="#231f20" stroke-miterlimit="10" stroke-width="2"/>
  <path d="M120,81.24c-2.01-.92-5.1-2.04-9-2.24-5.03-.26-8.95,1.11-11,2-1.68,.89-4.56,2.69-7,6-3.26,4.41-3.86,8.96-4,11,.57,1.17,1.72,1.94,3,2,1.88,.09,2.97-1.4,3.05-1.5,.06-.99,.54-7.41,5.95-11.5,4.75-3.59,11.41-3.98,17-1,1.42,.13,2.69-.76,3-2,.25-.99-.15-2.07-1-2.76Z" fill="#fbb040"/>
  <path d="M119,63c-2.98-.92-6.7-1.74-11-2-3.69-.22-7.11,.02-10.17,.51-9.23,1.48-17.58,6.51-22.72,14.31-.04,.06-.07,.11-.11,.17-4.77,7.33-5.75,14.48-6,18,.5,1.21,1.69,2,3,2s2.5-.79,3-2c.14-1.63,.56-5.06,2.05-8.75,.76-1.89,1.8-3.91,3.23-5.94,.03-.05,.07-.09,.1-.14,4.52-6.37,11.88-10.47,19.99-11.68,2.69-.4,5.7-.6,8.95-.42,3.79,.21,7.05,.88,9.68,1.63,1.58-.71,2.37-2.33,2-3.7-.39-1.41-1.85-1.95-2-2Z" fill="#fbb040"/>
  <path d="M121,73c-13.55-4.95-27.84-2.13-36,7-5.93,6.63-5.83,13.6-6,17,.26,1.03,1.05,1.82,2,2,1.24,.23,2.58-.6,2.98-2,.12-3,.84-8.88,5.02-14,6.42-7.88,18.32-10.69,30-7,1.39,.61,2.76-.1,3-1,.17-.65-.23-1.49-1-2Z" fill="#fbb040"/>
</svg>