<?xml version="1.0" encoding="utf-8"?>
<!-- Generator: Adobe Illustrator 26.5.0, SVG Export Plug-In . SVG Version: 6.00 Build 0)  -->
<svg version="1.1" id="Layer_2_00000096022202997930579210000012788071679462550716_"
	 xmlns="http://www.w3.org/2000/svg" xmlns:xlink="http://www.w3.org/1999/xlink" x="0px" y="0px" viewBox="0 0 454 428.9"
	 style="enable-background:new 0 0 454 428.9;" xml:space="preserve">
<style type="text/css">
	.st0{fill:#F7941D;stroke:#231F20;stroke-width:2;stroke-miterlimit:10;}
	.st1{fill:#6D6E71;stroke:#231F20;stroke-width:2;stroke-miterlimit:10;}
	.st2{fill:#00AEEF;stroke:#231F20;stroke-width:2;stroke-miterlimit:10;}
	.st3{fill:none;stroke:#231F20;stroke-width:2;stroke-miterlimit:10;}
	.st4{fill:#FBB040;}
	.st5{fill:#231F20;stroke:#231F20;stroke-width:2;stroke-miterlimit:10;}
</style>
<path class="st0" d="M227,91.5c6,1.1,14.3,2.9,24,5.5c9.2,2.4,16.1,4.7,17,5c22.5,7.6,38.9,51,67.8,97.5
	c18.7,30.1,30.6,42.1,35.2,46.5c16,15.4,31.9,25.2,43.1,31.1L323,381c-20.2-32.1-35.5-55.5-40.4-63.1c-4.7-7.3-11.3-13.2-19.2-16.9
	c-10.9-5.2-23.4-12.2-36.4-21.9c-10-7.5-25.1-17.7-40-39c-2.9,0.6-10.5,1.6-19-2c-7.8-3.2-12.2-8.6-14-11l73-135"/>
<path class="st1" d="M87,12L14.6,53.1C7.6,57.2,5.9,66.8,11.3,73l131.3,153.8c2.6,3.1,7,3.9,10.6,2l7.4-3.9"/>
<path class="st2" d="M214,193l-33.9,20.2l-19.6,11.6c-5,3-11.4,1.9-15.2-2.5L17,73.1c-6.3-7.3-4.4-18.5,3.8-23.5L87,12
	c8.4-5,21.5,0.6,28,8l45,50c8,8.7,80.8,88.6,61,117C219.4,189.3,217.2,191.3,214,193"/>
<path class="st3" d="M187,240c6.9-1.7,11.5-7.8,11-14c-0.4-4.7-3.6-8.9-8.2-11l-9.7-1.8"/>
<path class="st3" d="M180.1,240c-4.5-2.5-6.9-7.4-6.1-12c0.9-5.2,5.5-7.7,6.1-8c2.7-1,7.5-2.4,12.9-1c1,0.3,2,0.6,2.8,1"/>
<path class="st0" d="M274,131c-30.6-18.7-41.9-31.2-47-39c-1.1-1.8-3.2-5.2-7-9c-7.8-7.9-16-5.7-23-10.7c-0.7-0.5,0-0.1-5-5.3
	c-12.4-13-14.3-13.9-16-14c-5.3-0.4-10.6,5.5-13,10c-7.9,14.7,1.5,38,17,50c2.5,1.9,2,1.1,6,4c8,5.8,20.6,14.9,27,31
	c1.4,3.5,3.6,9.2,4,17c0.5,9.8-2.3,14.6-3,21c-0.8,7.4,1,18.1,13,32.4"/>
<path class="st3" d="M176,53c-3.4,0.6-6.1,2.9-7,6c-1.1,3.5,0.7,6.5,1,7c4.7,5.3,9.3,10.7,14,16c4,1.8,8.4,0.9,11-2
	c2.8-3.1,2.1-7.2,2-7.7"/>
<polygon class="st4" points="109,91 110.9,121 120.6,111.8 138,136 129.9,95.4 119.4,104.2 "/>
<circle class="st5" cx="61.5" cy="42.5" r="4.5"/>
<path class="st4" d="M120,81.2c-2-0.9-5.1-2-9-2.2c-5-0.3-8.9,1.1-11,2c-1.7,0.9-4.6,2.7-7,6c-3.3,4.4-3.9,9-4,11
	c0.6,1.2,1.7,1.9,3,2c1.9,0.1,3-1.4,3.1-1.5c0.1-1,0.5-7.4,5.9-11.5c4.8-3.6,11.4-4,17-1c1.4,0.1,2.7-0.8,3-2
	C121.2,83,120.8,81.9,120,81.2z"/>
<path class="st4" d="M119,63c-3-0.9-6.7-1.7-11-2c-3.7-0.2-7.1,0-10.2,0.5C88.6,63,80.2,68,75.1,75.8c0,0.1-0.1,0.1-0.1,0.2
	c-4.8,7.3-5.8,14.5-6,18c0.5,1.2,1.7,2,3,2s2.5-0.8,3-2c0.1-1.6,0.6-5.1,2.1-8.8c0.8-1.9,1.8-3.9,3.2-5.9c0-0.1,0.1-0.1,0.1-0.1
	c4.5-6.4,11.9-10.5,20-11.7c2.7-0.4,5.7-0.6,8.9-0.4c3.8,0.2,7.1,0.9,9.7,1.6c1.6-0.7,2.4-2.3,2-3.7C120.6,63.6,119.2,63,119,63
	L119,63z"/>
<path class="st4" d="M120.5,72.2C107,67.2,93.2,70.9,85,80c-5.9,6.6-6.2,13.2-6.3,16.6c0.3,1,0.9,2.1,1.9,2.2
	c1.2,0.2,3.1-0.4,3.5-1.8c0.1-3,0.8-8.9,5-14c6.4-7.9,18.3-10.7,30-7c1.4,0.6,2.2-0.4,2.5-1.3C121.7,74,121.3,72.7,120.5,72.2z"/>
</svg>
